solid ASCII
  facet normal 6.334218e-04 0.000000e+00 9.999998e-01
    outer loop
      vertex   3.378466e+02 4.062500e+01 4.255369e+02
      vertex   3.315966e+02 0.000000e+00 4.255409e+02
      vertex   3.378466e+02 -6.250000e+00 4.255369e+02
    endloop
  endfacet
  facet normal 6.334218e-04 -2.176979e-12 9.999998e-01
    outer loop
      vertex   3.378466e+02 -6.250000e+00 4.255369e+02
      vertex   3.315966e+02 0.000000e+00 4.255409e+02
      vertex   1.451009e+02 0.000000e+00 4.256590e+02
    endloop
  endfacet
  facet normal 6.334218e-04 -3.522082e-15 9.999998e-01
    outer loop
      vertex   3.378466e+02 -6.250000e+00 4.255369e+02
      vertex   1.451009e+02 0.000000e+00 4.256590e+02
      vertex   1.388509e+02 -6.250000e+00 4.256630e+02
    endloop
  endfacet
  facet normal 6.334218e-04 0.000000e+00 9.999998e-01
    outer loop
      vertex   1.388509e+02 -6.250000e+00 4.256630e+02
      vertex   1.451009e+02 0.000000e+00 4.256590e+02
      vertex   1.451009e+02 3.437500e+01 4.256590e+02
    endloop
  endfacet
  facet normal 6.334218e-04 -0.000000e+00 9.999998e-01
    outer loop
      vertex   1.388509e+02 -6.250000e+00 4.256630e+02
      vertex   1.451009e+02 3.437500e+01 4.256590e+02
      vertex   1.388509e+02 4.062500e+01 4.256630e+02
    endloop
  endfacet
  facet normal 6.334218e-04 3.522261e-15 9.999998e-01
    outer loop
      vertex   1.388509e+02 4.062500e+01 4.256630e+02
      vertex   1.451009e+02 3.437500e+01 4.256590e+02
      vertex   3.378466e+02 4.062500e+01 4.255369e+02
    endloop
  endfacet
  facet normal 6.334218e-04 2.176979e-12 9.999998e-01
    outer loop
      vertex   3.378466e+02 4.062500e+01 4.255369e+02
      vertex   1.451009e+02 3.437500e+01 4.256590e+02
      vertex   3.315966e+02 3.437500e+01 4.255409e+02
    endloop
  endfacet
  facet normal 6.334218e-04 0.000000e+00 9.999998e-01
    outer loop
      vertex   3.378466e+02 4.062500e+01 4.255369e+02
      vertex   3.315966e+02 3.437500e+01 4.255409e+02
      vertex   3.315966e+02 0.000000e+00 4.255409e+02
    endloop
  endfacet
  facet normal 0.000000e+00 1.000000e+00 0.000000e+00
    outer loop
      vertex   1.388509e+02 4.062500e+01 4.256630e+02
      vertex   3.378466e+02 4.062500e+01 4.255369e+02
      vertex   1.388469e+02 4.062500e+01 4.194130e+02
    endloop
  endfacet
  facet normal -0.000000e+00 1.000000e+00 0.000000e+00
    outer loop
      vertex   1.388469e+02 4.062500e+01 4.194130e+02
      vertex   3.378466e+02 4.062500e+01 4.255369e+02
      vertex   3.378426e+02 4.062500e+01 4.192869e+02
    endloop
  endfacet
  facet normal -9.999998e-01 0.000000e+00 6.334218e-04
    outer loop
      vertex   1.388509e+02 -6.250000e+00 4.256630e+02
      vertex   1.388509e+02 4.062500e+01 4.256630e+02
      vertex   1.388469e+02 -6.250000e+00 4.194130e+02
    endloop
  endfacet
  facet normal -9.999998e-01 0.000000e+00 6.334218e-04
    outer loop
      vertex   1.388469e+02 -6.250000e+00 4.194130e+02
      vertex   1.388509e+02 4.062500e+01 4.256630e+02
      vertex   1.388469e+02 4.062500e+01 4.194130e+02
    endloop
  endfacet
  facet normal -0.000000e+00 -1.000000e+00 0.000000e+00
    outer loop
      vertex   3.378466e+02 -6.250000e+00 4.255369e+02
      vertex   1.388509e+02 -6.250000e+00 4.256630e+02
      vertex   3.378426e+02 -6.250000e+00 4.192869e+02
    endloop
  endfacet
  facet normal 0.000000e+00 -1.000000e+00 0.000000e+00
    outer loop
      vertex   3.378426e+02 -6.250000e+00 4.192869e+02
      vertex   1.388509e+02 -6.250000e+00 4.256630e+02
      vertex   1.388469e+02 -6.250000e+00 4.194130e+02
    endloop
  endfacet
  facet normal 9.999998e-01 0.000000e+00 -6.334218e-04
    outer loop
      vertex   3.378466e+02 4.062500e+01 4.255369e+02
      vertex   3.378466e+02 -6.250000e+00 4.255369e+02
      vertex   3.378426e+02 4.062500e+01 4.192869e+02
    endloop
  endfacet
  facet normal 9.999998e-01 0.000000e+00 -6.334218e-04
    outer loop
      vertex   3.378426e+02 4.062500e+01 4.192869e+02
      vertex   3.378466e+02 -6.250000e+00 4.255369e+02
      vertex   3.378426e+02 -6.250000e+00 4.192869e+02
    endloop
  endfacet
  facet normal -6.334218e-04 0.000000e+00 -9.999998e-01
    outer loop
      vertex   3.378426e+02 -6.250000e+00 4.192869e+02
      vertex   1.388469e+02 -6.250000e+00 4.194130e+02
      vertex   3.378426e+02 4.062500e+01 4.192869e+02
    endloop
  endfacet
  facet normal -6.334218e-04 0.000000e+00 -9.999998e-01
    outer loop
      vertex   3.378426e+02 4.062500e+01 4.192869e+02
      vertex   1.388469e+02 -6.250000e+00 4.194130e+02
      vertex   1.388469e+02 4.062500e+01 4.194130e+02
    endloop
  endfacet
  facet normal -0.000000e+00 -1.000000e+00 0.000000e+00
    outer loop
      vertex   3.941678e+02 0.000000e+00 6.092497e+02
      vertex   2.076825e+02 0.000000e+00 6.093678e+02
      vertex   3.315966e+02 0.000000e+00 4.255409e+02
    endloop
  endfacet
  facet normal 0.000000e+00 -1.000000e+00 0.000000e+00
    outer loop
      vertex   3.315966e+02 0.000000e+00 4.255409e+02
      vertex   2.076825e+02 0.000000e+00 6.093678e+02
      vertex   1.451009e+02 0.000000e+00 4.256590e+02
    endloop
  endfacet
  facet normal -9.465832e-01 0.000000e+00 3.224598e-01
    outer loop
      vertex   2.076825e+02 3.437500e+01 6.093678e+02
      vertex   1.451009e+02 3.437500e+01 4.256590e+02
      vertex   2.076825e+02 0.000000e+00 6.093678e+02
    endloop
  endfacet
  facet normal -9.465832e-01 0.000000e+00 3.224598e-01
    outer loop
      vertex   2.076825e+02 0.000000e+00 6.093678e+02
      vertex   1.451009e+02 3.437500e+01 4.256590e+02
      vertex   1.451009e+02 0.000000e+00 4.256590e+02
    endloop
  endfacet
  facet normal 9.465995e-01 0.000000e+00 -3.224120e-01
    outer loop
      vertex   3.941678e+02 0.000000e+00 6.092497e+02
      vertex   3.315966e+02 0.000000e+00 4.255409e+02
      vertex   3.941678e+02 3.437500e+01 6.092497e+02
    endloop
  endfacet
  facet normal 9.465995e-01 0.000000e+00 -3.224120e-01
    outer loop
      vertex   3.941678e+02 3.437500e+01 6.092497e+02
      vertex   3.315966e+02 0.000000e+00 4.255409e+02
      vertex   3.315966e+02 3.437500e+01 4.255409e+02
    endloop
  endfacet
  facet normal 0.000000e+00 1.000000e+00 0.000000e+00
    outer loop
      vertex   3.941678e+02 3.437500e+01 6.092497e+02
      vertex   3.315966e+02 3.437500e+01 4.255409e+02
      vertex   2.076825e+02 3.437500e+01 6.093678e+02
    endloop
  endfacet
  facet normal 0.000000e+00 1.000000e+00 0.000000e+00
    outer loop
      vertex   2.076825e+02 3.437500e+01 6.093678e+02
      vertex   3.315966e+02 3.437500e+01 4.255409e+02
      vertex   1.451009e+02 3.437500e+01 4.256590e+02
    endloop
  endfacet
  facet normal -0.000000e+00 -1.000000e+00 0.000000e+00
    outer loop
      vertex   3.888869e+02 2.937500e+01 6.092530e+02
      vertex   2.129635e+02 2.937500e+01 6.093645e+02
      vertex   3.280183e+02 2.937500e+01 4.305431e+02
    endloop
  endfacet
  facet normal 0.000000e+00 -1.000000e+00 0.000000e+00
    outer loop
      vertex   3.280183e+02 2.937500e+01 4.305431e+02
      vertex   2.129635e+02 2.937500e+01 6.093645e+02
      vertex   1.520848e+02 2.937500e+01 4.306546e+02
    endloop
  endfacet
  facet normal 6.334218e-04 -0.000000e+00 9.999998e-01
    outer loop
      vertex   1.520848e+02 5.000000e+00 4.306546e+02
      vertex   3.280183e+02 5.000000e+00 4.305431e+02
      vertex   1.520848e+02 2.937500e+01 4.306546e+02
    endloop
  endfacet
  facet normal 6.334218e-04 0.000000e+00 9.999998e-01
    outer loop
      vertex   1.520848e+02 2.937500e+01 4.306546e+02
      vertex   3.280183e+02 5.000000e+00 4.305431e+02
      vertex   3.280183e+02 2.937500e+01 4.305431e+02
    endloop
  endfacet
  facet normal 9.465832e-01 0.000000e+00 -3.224598e-01
    outer loop
      vertex   2.129635e+02 5.000000e+00 6.093645e+02
      vertex   1.520848e+02 5.000000e+00 4.306546e+02
      vertex   2.129635e+02 2.937500e+01 6.093645e+02
    endloop
  endfacet
  facet normal 9.465832e-01 0.000000e+00 -3.224598e-01
    outer loop
      vertex   2.129635e+02 2.937500e+01 6.093645e+02
      vertex   1.520848e+02 5.000000e+00 4.306546e+02
      vertex   1.520848e+02 2.937500e+01 4.306546e+02
    endloop
  endfacet
  facet normal -9.465995e-01 0.000000e+00 3.224120e-01
    outer loop
      vertex   3.888869e+02 2.937500e+01 6.092530e+02
      vertex   3.280183e+02 2.937500e+01 4.305431e+02
      vertex   3.888869e+02 5.000000e+00 6.092530e+02
    endloop
  endfacet
  facet normal -9.465995e-01 0.000000e+00 3.224120e-01
    outer loop
      vertex   3.888869e+02 5.000000e+00 6.092530e+02
      vertex   3.280183e+02 2.937500e+01 4.305431e+02
      vertex   3.280183e+02 5.000000e+00 4.305431e+02
    endloop
  endfacet
  facet normal 0.000000e+00 1.000000e+00 0.000000e+00
    outer loop
      vertex   3.888869e+02 5.000000e+00 6.092530e+02
      vertex   3.280183e+02 5.000000e+00 4.305431e+02
      vertex   2.129635e+02 5.000000e+00 6.093645e+02
    endloop
  endfacet
  facet normal 0.000000e+00 1.000000e+00 0.000000e+00
    outer loop
      vertex   2.129635e+02 5.000000e+00 6.093645e+02
      vertex   3.280183e+02 5.000000e+00 4.305431e+02
      vertex   1.520848e+02 5.000000e+00 4.306546e+02
    endloop
  endfacet
  facet normal 6.334218e-04 0.000000e+00 9.999998e-01
    outer loop
      vertex   3.941678e+02 3.437500e+01 6.092497e+02
      vertex   3.888869e+02 2.937500e+01 6.092530e+02
      vertex   3.941678e+02 0.000000e+00 6.092497e+02
    endloop
  endfacet
  facet normal 6.334218e-04 0.000000e+00 9.999998e-01
    outer loop
      vertex   3.941678e+02 0.000000e+00 6.092497e+02
      vertex   3.888869e+02 2.937500e+01 6.092530e+02
      vertex   3.888869e+02 5.000000e+00 6.092530e+02
    endloop
  endfacet
  facet normal 6.334218e-04 -2.542609e-14 9.999998e-01
    outer loop
      vertex   3.941678e+02 0.000000e+00 6.092497e+02
      vertex   3.888869e+02 5.000000e+00 6.092530e+02
      vertex   2.129635e+02 5.000000e+00 6.093645e+02
    endloop
  endfacet
  facet normal 6.334218e-04 2.542621e-14 9.999998e-01
    outer loop
      vertex   3.888869e+02 2.937500e+01 6.092530e+02
      vertex   3.941678e+02 3.437500e+01 6.092497e+02
      vertex   2.129635e+02 2.937500e+01 6.093645e+02
    endloop
  endfacet
  facet normal 6.334218e-04 1.167927e-14 9.999998e-01
    outer loop
      vertex   2.129635e+02 2.937500e+01 6.093645e+02
      vertex   3.941678e+02 3.437500e+01 6.092497e+02
      vertex   2.076825e+02 3.437500e+01 6.093678e+02
    endloop
  endfacet
  facet normal 6.334218e-04 0.000000e+00 9.999998e-01
    outer loop
      vertex   2.129635e+02 2.937500e+01 6.093645e+02
      vertex   2.076825e+02 3.437500e+01 6.093678e+02
      vertex   2.076825e+02 0.000000e+00 6.093678e+02
    endloop
  endfacet
  facet normal 6.334218e-04 0.000000e+00 9.999998e-01
    outer loop
      vertex   2.129635e+02 2.937500e+01 6.093645e+02
      vertex   2.076825e+02 0.000000e+00 6.093678e+02
      vertex   2.129635e+02 5.000000e+00 6.093645e+02
    endloop
  endfacet
  facet normal 6.334218e-04 -1.167927e-14 9.999998e-01
    outer loop
      vertex   2.129635e+02 5.000000e+00 6.093645e+02
      vertex   2.076825e+02 0.000000e+00 6.093678e+02
      vertex   3.941678e+02 0.000000e+00 6.092497e+02
    endloop
  endfacet
  facet normal -6.334218e-04 2.542508e-14 -9.999998e-01
    outer loop
      vertex   2.129635e+02 5.000000e+00 6.093645e+02
      vertex   3.888869e+02 5.000000e+00 6.092530e+02
      vertex   3.941678e+02 0.000000e+00 6.092497e+02
    endloop
  endfacet
  facet normal -6.334218e-04 0.000000e+00 -9.999998e-01
    outer loop
      vertex   3.941678e+02 0.000000e+00 6.092497e+02
      vertex   3.888869e+02 5.000000e+00 6.092530e+02
      vertex   3.888869e+02 2.937500e+01 6.092530e+02
    endloop
  endfacet
  facet normal -6.334218e-04 0.000000e+00 -9.999998e-01
    outer loop
      vertex   3.941678e+02 0.000000e+00 6.092497e+02
      vertex   3.888869e+02 2.937500e+01 6.092530e+02
      vertex   3.941678e+02 3.437500e+01 6.092497e+02
    endloop
  endfacet
  facet normal -6.334218e-04 -2.542609e-14 -9.999998e-01
    outer loop
      vertex   3.941678e+02 3.437500e+01 6.092497e+02
      vertex   3.888869e+02 2.937500e+01 6.092530e+02
      vertex   2.129635e+02 2.937500e+01 6.093645e+02
    endloop
  endfacet
  facet normal -6.334218e-04 -1.168201e-14 -9.999998e-01
    outer loop
      vertex   3.941678e+02 3.437500e+01 6.092497e+02
      vertex   2.129635e+02 2.937500e+01 6.093645e+02
      vertex   2.076825e+02 3.437500e+01 6.093678e+02
    endloop
  endfacet
  facet normal -6.334218e-04 -0.000000e+00 -9.999998e-01
    outer loop
      vertex   2.076825e+02 3.437500e+01 6.093678e+02
      vertex   2.129635e+02 2.937500e+01 6.093645e+02
      vertex   2.076825e+02 0.000000e+00 6.093678e+02
    endloop
  endfacet
  facet normal -6.334218e-04 0.000000e+00 -9.999998e-01
    outer loop
      vertex   2.076825e+02 0.000000e+00 6.093678e+02
      vertex   2.129635e+02 2.937500e+01 6.093645e+02
      vertex   2.129635e+02 5.000000e+00 6.093645e+02
    endloop
  endfacet
  facet normal -6.334218e-04 1.167927e-14 -9.999998e-01
    outer loop
      vertex   2.076825e+02 0.000000e+00 6.093678e+02
      vertex   2.129635e+02 5.000000e+00 6.093645e+02
      vertex   3.941678e+02 0.000000e+00 6.092497e+02
    endloop
  endfacet
  facet normal 9.465832e-01 0.000000e+00 -3.224598e-01
    outer loop
      vertex   2.129635e+02 2.937500e+01 6.093645e+02
      vertex   2.146664e+02 2.937500e+01 6.143634e+02
      vertex   2.129635e+02 5.000000e+00 6.093645e+02
    endloop
  endfacet
  facet normal 9.465832e-01 0.000000e+00 -3.224598e-01
    outer loop
      vertex   2.129635e+02 5.000000e+00 6.093645e+02
      vertex   2.146664e+02 2.937500e+01 6.143634e+02
      vertex   2.146664e+02 5.000000e+00 6.143634e+02
    endloop
  endfacet
  facet normal 0.000000e+00 -1.000000e+00 0.000000e+00
    outer loop
      vertex   2.129635e+02 2.937500e+01 6.093645e+02
      vertex   3.888869e+02 2.937500e+01 6.092530e+02
      vertex   2.146664e+02 2.937500e+01 6.143634e+02
    endloop
  endfacet
  facet normal 0.000000e+00 -1.000000e+00 0.000000e+00
    outer loop
      vertex   2.146664e+02 2.937500e+01 6.143634e+02
      vertex   3.888869e+02 2.937500e+01 6.092530e+02
      vertex   3.905895e+02 2.937500e+01 6.142519e+02
    endloop
  endfacet
  facet normal -6.334218e-04 4.664074e-15 -9.999998e-01
    outer loop
      vertex   3.905895e+02 5.000000e+00 6.142519e+02
      vertex   2.146664e+02 5.000000e+00 6.143634e+02
      vertex   3.905895e+02 2.937500e+01 6.142519e+02
    endloop
  endfacet
  facet normal -6.334218e-04 0.000000e+00 -9.999998e-01
    outer loop
      vertex   3.905895e+02 2.937500e+01 6.142519e+02
      vertex   2.146664e+02 5.000000e+00 6.143634e+02
      vertex   2.146664e+02 2.937500e+01 6.143634e+02
    endloop
  endfacet
  facet normal -9.465995e-01 0.000000e+00 3.224120e-01
    outer loop
      vertex   3.888869e+02 5.000000e+00 6.092530e+02
      vertex   3.905895e+02 5.000000e+00 6.142519e+02
      vertex   3.888869e+02 2.937500e+01 6.092530e+02
    endloop
  endfacet
  facet normal -9.465995e-01 -1.504187e-15 3.224120e-01
    outer loop
      vertex   3.888869e+02 2.937500e+01 6.092530e+02
      vertex   3.905895e+02 5.000000e+00 6.142519e+02
      vertex   3.905895e+02 2.937500e+01 6.142519e+02
    endloop
  endfacet
  facet normal -0.000000e+00 1.000000e+00 0.000000e+00
    outer loop
      vertex   2.129635e+02 5.000000e+00 6.093645e+02
      vertex   2.146664e+02 5.000000e+00 6.143634e+02
      vertex   3.888869e+02 5.000000e+00 6.092530e+02
    endloop
  endfacet
  facet normal 0.000000e+00 1.000000e+00 -0.000000e+00
    outer loop
      vertex   3.888869e+02 5.000000e+00 6.092530e+02
      vertex   2.146664e+02 5.000000e+00 6.143634e+02
      vertex   3.905895e+02 5.000000e+00 6.142519e+02
    endloop
  endfacet
  facet normal -9.465832e-01 0.000000e+00 3.224598e-01
    outer loop
      vertex   2.076825e+02 0.000000e+00 6.093678e+02
      vertex   2.110883e+02 0.000000e+00 6.193656e+02
      vertex   2.076825e+02 3.437500e+01 6.093678e+02
    endloop
  endfacet
  facet normal -9.465832e-01 0.000000e+00 3.224598e-01
    outer loop
      vertex   2.076825e+02 3.437500e+01 6.093678e+02
      vertex   2.110883e+02 0.000000e+00 6.193656e+02
      vertex   2.110883e+02 3.437500e+01 6.193656e+02
    endloop
  endfacet
  facet normal 0.000000e+00 -1.000000e+00 0.000000e+00
    outer loop
      vertex   2.076825e+02 0.000000e+00 6.093678e+02
      vertex   3.941678e+02 0.000000e+00 6.092497e+02
      vertex   2.110883e+02 0.000000e+00 6.193656e+02
    endloop
  endfacet
  facet normal 0.000000e+00 -1.000000e+00 0.000000e+00
    outer loop
      vertex   2.110883e+02 0.000000e+00 6.193656e+02
      vertex   3.941678e+02 0.000000e+00 6.092497e+02
      vertex   3.975731e+02 0.000000e+00 6.192475e+02
    endloop
  endfacet
  facet normal 6.334218e-04 -0.000000e+00 9.999998e-01
    outer loop
      vertex   2.110883e+02 0.000000e+00 6.193656e+02
      vertex   3.975731e+02 0.000000e+00 6.192475e+02
      vertex   2.110883e+02 3.437500e+01 6.193656e+02
    endloop
  endfacet
  facet normal 6.334218e-04 0.000000e+00 9.999998e-01
    outer loop
      vertex   2.110883e+02 3.437500e+01 6.193656e+02
      vertex   3.975731e+02 0.000000e+00 6.192475e+02
      vertex   3.975731e+02 3.437500e+01 6.192475e+02
    endloop
  endfacet
  facet normal 9.465995e-01 0.000000e+00 -3.224120e-01
    outer loop
      vertex   3.941678e+02 3.437500e+01 6.092497e+02
      vertex   3.975731e+02 3.437500e+01 6.192475e+02
      vertex   3.941678e+02 0.000000e+00 6.092497e+02
    endloop
  endfacet
  facet normal 9.465995e-01 0.000000e+00 -3.224120e-01
    outer loop
      vertex   3.941678e+02 0.000000e+00 6.092497e+02
      vertex   3.975731e+02 3.437500e+01 6.192475e+02
      vertex   3.975731e+02 0.000000e+00 6.192475e+02
    endloop
  endfacet
  facet normal -0.000000e+00 1.000000e+00 0.000000e+00
    outer loop
      vertex   2.076825e+02 3.437500e+01 6.093678e+02
      vertex   2.110883e+02 3.437500e+01 6.193656e+02
      vertex   3.941678e+02 3.437500e+01 6.092497e+02
    endloop
  endfacet
  facet normal 0.000000e+00 1.000000e+00 -0.000000e+00
    outer loop
      vertex   3.941678e+02 3.437500e+01 6.092497e+02
      vertex   2.110883e+02 3.437500e+01 6.193656e+02
      vertex   3.975731e+02 3.437500e+01 6.192475e+02
    endloop
  endfacet
endsolid
